<mxfile host="app.diagrams.net" agent="Mozilla/5.0 (Windows NT 10.0; Win64; x64) AppleWebKit/537.36 (KHTML, like Gecko) Chrome/127.0.0.0 Safari/537.36" version="24.7.7">
  <diagram name="Page-1" id="KWCKRcehmPRsG7548dfV">
    <mxGraphModel dx="1667" dy="455" grid="1" gridSize="10" guides="1" tooltips="1" connect="1" arrows="1" fold="1" page="1" pageScale="1" pageWidth="827" pageHeight="1169" math="0" shadow="0">
      <root>
        <mxCell id="0" />
        <mxCell id="1" parent="0" />
        <mxCell id="8ahsWJC3MQ3NHJCZ4eqF-1" value="VPC" style="points=[[0,0],[0.25,0],[0.5,0],[0.75,0],[1,0],[1,0.25],[1,0.5],[1,0.75],[1,1],[0.75,1],[0.5,1],[0.25,1],[0,1],[0,0.75],[0,0.5],[0,0.25]];outlineConnect=0;gradientColor=none;html=1;whiteSpace=wrap;fontSize=12;fontStyle=0;container=1;pointerEvents=0;collapsible=0;recursiveResize=0;shape=mxgraph.aws4.group;grIcon=mxgraph.aws4.group_vpc2;strokeColor=#8C4FFF;fillColor=none;verticalAlign=top;align=left;spacingLeft=30;fontColor=#AAB7B8;dashed=0;" vertex="1" parent="1">
          <mxGeometry x="-60" y="410" width="660" height="380" as="geometry" />
        </mxCell>
        <mxCell id="8ahsWJC3MQ3NHJCZ4eqF-2" value="Public subnet" style="points=[[0,0],[0.25,0],[0.5,0],[0.75,0],[1,0],[1,0.25],[1,0.5],[1,0.75],[1,1],[0.75,1],[0.5,1],[0.25,1],[0,1],[0,0.75],[0,0.5],[0,0.25]];outlineConnect=0;gradientColor=none;html=1;whiteSpace=wrap;fontSize=12;fontStyle=0;container=1;pointerEvents=0;collapsible=0;recursiveResize=0;shape=mxgraph.aws4.group;grIcon=mxgraph.aws4.group_security_group;grStroke=0;strokeColor=#7AA116;fillColor=#F2F6E8;verticalAlign=top;align=left;spacingLeft=30;fontColor=#248814;dashed=0;" vertex="1" parent="8ahsWJC3MQ3NHJCZ4eqF-1">
          <mxGeometry x="50" y="50" width="210" height="300" as="geometry" />
        </mxCell>
        <mxCell id="8ahsWJC3MQ3NHJCZ4eqF-3" value="ec2-cp" style="sketch=0;points=[[0,0,0],[0.25,0,0],[0.5,0,0],[0.75,0,0],[1,0,0],[0,1,0],[0.25,1,0],[0.5,1,0],[0.75,1,0],[1,1,0],[0,0.25,0],[0,0.5,0],[0,0.75,0],[1,0.25,0],[1,0.5,0],[1,0.75,0]];outlineConnect=0;fontColor=#232F3E;fillColor=#ED7100;strokeColor=#ffffff;dashed=0;verticalLabelPosition=bottom;verticalAlign=top;align=center;html=1;fontSize=12;fontStyle=0;aspect=fixed;shape=mxgraph.aws4.resourceIcon;resIcon=mxgraph.aws4.ec2;" vertex="1" parent="8ahsWJC3MQ3NHJCZ4eqF-2">
          <mxGeometry x="20" y="40" width="78" height="78" as="geometry" />
        </mxCell>
        <mxCell id="8ahsWJC3MQ3NHJCZ4eqF-4" value="ec2-w2" style="sketch=0;points=[[0,0,0],[0.25,0,0],[0.5,0,0],[0.75,0,0],[1,0,0],[0,1,0],[0.25,1,0],[0.5,1,0],[0.75,1,0],[1,1,0],[0,0.25,0],[0,0.5,0],[0,0.75,0],[1,0.25,0],[1,0.5,0],[1,0.75,0]];outlineConnect=0;fontColor=#232F3E;fillColor=#ED7100;strokeColor=#ffffff;dashed=0;verticalLabelPosition=bottom;verticalAlign=top;align=center;html=1;fontSize=12;fontStyle=0;aspect=fixed;shape=mxgraph.aws4.resourceIcon;resIcon=mxgraph.aws4.ec2;" vertex="1" parent="8ahsWJC3MQ3NHJCZ4eqF-2">
          <mxGeometry x="110" y="105" width="78" height="78" as="geometry" />
        </mxCell>
        <mxCell id="8ahsWJC3MQ3NHJCZ4eqF-5" value="ec2-w1" style="sketch=0;points=[[0,0,0],[0.25,0,0],[0.5,0,0],[0.75,0,0],[1,0,0],[0,1,0],[0.25,1,0],[0.5,1,0],[0.75,1,0],[1,1,0],[0,0.25,0],[0,0.5,0],[0,0.75,0],[1,0.25,0],[1,0.5,0],[1,0.75,0]];outlineConnect=0;fontColor=#232F3E;fillColor=#ED7100;strokeColor=#ffffff;dashed=0;verticalLabelPosition=bottom;verticalAlign=top;align=center;html=1;fontSize=12;fontStyle=0;aspect=fixed;shape=mxgraph.aws4.resourceIcon;resIcon=mxgraph.aws4.ec2;" vertex="1" parent="8ahsWJC3MQ3NHJCZ4eqF-2">
          <mxGeometry x="20" y="180" width="78" height="78" as="geometry" />
        </mxCell>
        <mxCell id="8ahsWJC3MQ3NHJCZ4eqF-16" value="Security group" style="fillColor=none;strokeColor=#DD3522;verticalAlign=top;fontStyle=0;fontColor=#DD3522;whiteSpace=wrap;html=1;" vertex="1" parent="8ahsWJC3MQ3NHJCZ4eqF-2">
          <mxGeometry x="-10" y="-12" width="220" height="312" as="geometry" />
        </mxCell>
        <mxCell id="8ahsWJC3MQ3NHJCZ4eqF-8" value="" style="edgeStyle=orthogonalEdgeStyle;rounded=0;orthogonalLoop=1;jettySize=auto;html=1;" edge="1" parent="8ahsWJC3MQ3NHJCZ4eqF-1" source="8ahsWJC3MQ3NHJCZ4eqF-6" target="8ahsWJC3MQ3NHJCZ4eqF-2">
          <mxGeometry relative="1" as="geometry">
            <Array as="points">
              <mxPoint x="290" y="190" />
              <mxPoint x="290" y="190" />
            </Array>
          </mxGeometry>
        </mxCell>
        <mxCell id="8ahsWJC3MQ3NHJCZ4eqF-6" value="Network ACL" style="rounded=0;whiteSpace=wrap;html=1;" vertex="1" parent="8ahsWJC3MQ3NHJCZ4eqF-1">
          <mxGeometry x="290" y="150" width="120" height="60" as="geometry" />
        </mxCell>
        <mxCell id="8ahsWJC3MQ3NHJCZ4eqF-9" value="default route table" style="sketch=0;outlineConnect=0;fontColor=#232F3E;gradientColor=none;fillColor=#8C4FFF;strokeColor=none;dashed=0;verticalLabelPosition=bottom;verticalAlign=top;align=center;html=1;fontSize=12;fontStyle=0;aspect=fixed;pointerEvents=1;shape=mxgraph.aws4.route_table;" vertex="1" parent="8ahsWJC3MQ3NHJCZ4eqF-1">
          <mxGeometry x="460" y="210" width="78" height="76" as="geometry" />
        </mxCell>
        <mxCell id="8ahsWJC3MQ3NHJCZ4eqF-21" value="" style="edgeStyle=orthogonalEdgeStyle;rounded=0;orthogonalLoop=1;jettySize=auto;html=1;entryX=1;entryY=0.5;entryDx=0;entryDy=0;" edge="1" parent="8ahsWJC3MQ3NHJCZ4eqF-1" source="8ahsWJC3MQ3NHJCZ4eqF-17" target="8ahsWJC3MQ3NHJCZ4eqF-6">
          <mxGeometry relative="1" as="geometry">
            <mxPoint x="379.7711167866262" y="78" as="targetPoint" />
          </mxGeometry>
        </mxCell>
        <mxCell id="8ahsWJC3MQ3NHJCZ4eqF-17" value="rt internet" style="sketch=0;outlineConnect=0;fontColor=#232F3E;gradientColor=none;fillColor=#8C4FFF;strokeColor=none;dashed=0;verticalLabelPosition=bottom;verticalAlign=top;align=center;html=1;fontSize=12;fontStyle=0;aspect=fixed;pointerEvents=1;shape=mxgraph.aws4.route_table;" vertex="1" parent="8ahsWJC3MQ3NHJCZ4eqF-1">
          <mxGeometry x="460" y="60" width="78" height="76" as="geometry" />
        </mxCell>
        <mxCell id="8ahsWJC3MQ3NHJCZ4eqF-13" value="" style="edgeStyle=orthogonalEdgeStyle;rounded=0;orthogonalLoop=1;jettySize=auto;html=1;" edge="1" parent="1" source="8ahsWJC3MQ3NHJCZ4eqF-12" target="8ahsWJC3MQ3NHJCZ4eqF-17">
          <mxGeometry relative="1" as="geometry">
            <Array as="points">
              <mxPoint x="520" y="590" />
              <mxPoint x="520" y="510" />
            </Array>
          </mxGeometry>
        </mxCell>
        <mxCell id="8ahsWJC3MQ3NHJCZ4eqF-12" value="Internet&#xa;gateway" style="sketch=0;outlineConnect=0;fontColor=#232F3E;gradientColor=none;strokeColor=#232F3E;fillColor=#ffffff;dashed=0;verticalLabelPosition=bottom;verticalAlign=top;align=center;html=1;fontSize=12;fontStyle=0;aspect=fixed;shape=mxgraph.aws4.resourceIcon;resIcon=mxgraph.aws4.internet_gateway;" vertex="1" parent="1">
          <mxGeometry x="570" y="560" width="60" height="60" as="geometry" />
        </mxCell>
      </root>
    </mxGraphModel>
  </diagram>
</mxfile>
